<?xml version="1.0" encoding="UTF-8" standalone="no"?>
<svg
   inkscape:version="1.2.2 (1:1.2.2+202305151914+b0a8486541)"
   sodipodi:docname="spaam-AncientMetagenomeDir_namedlogo.svg"
   viewBox="0 0 879.55908 332.34186"
   height="332.34186"
   width="879.55908"
   id="svg2"
   version="1.1"
   xmlns:inkscape="http://www.inkscape.org/namespaces/inkscape"
   xmlns:sodipodi="http://sodipodi.sourceforge.net/DTD/sodipodi-0.dtd"
   xmlns="http://www.w3.org/2000/svg"
   xmlns:svg="http://www.w3.org/2000/svg"
   xmlns:rdf="http://www.w3.org/1999/02/22-rdf-syntax-ns#"
   xmlns:cc="http://creativecommons.org/ns#"
   xmlns:dc="http://purl.org/dc/elements/1.1/">
  <metadata
     id="metadata8">
    <rdf:RDF>
      <cc:Work
         rdf:about="">
        <dc:format>image/svg+xml</dc:format>
        <dc:type
           rdf:resource="http://purl.org/dc/dcmitype/StillImage" />
      </cc:Work>
    </rdf:RDF>
  </metadata>
  <defs
     id="defs6">
    <rect
       id="rect53"
       height="79.434181"
       width="150.03178"
       y="259.83752"
       x="369.31476" />
    <style
       id="style859">.cls-1{fill:#ee4890;}.cls-2{fill:#fc6;}.cls-3{fill:#2ab675;}.cls-4{fill:#74d1f6;}</style>
  </defs>
  <sodipodi:namedview
     inkscape:current-layer="layer1"
     inkscape:window-maximized="1"
     inkscape:window-y="0"
     inkscape:window-x="0"
     inkscape:cy="239.27052"
     inkscape:cx="582.61398"
     inkscape:zoom="0.5140625"
     showgrid="false"
     id="namedview4"
     inkscape:window-height="1043"
     inkscape:window-width="1920"
     inkscape:pageshadow="2"
     inkscape:pageopacity="0"
     guidetolerance="10"
     gridtolerance="10"
     objecttolerance="10"
     borderopacity="1"
     bordercolor="#666666"
     pagecolor="#ffffff"
     inkscape:showpageshadow="0"
     inkscape:pagecheckerboard="1"
     inkscape:deskcolor="#d1d1d1" />
  <g
     id="g10"
     inkscape:label="Image"
     inkscape:groupmode="layer"
     transform="translate(-200.12822,-154.75042)">
    <g
       transform="matrix(3.7795276,0,0,3.7795276,-780.26544,-798.08815)"
       id="layer1"
       inkscape:label="Layer 1">
      <g
         transform="translate(15.796641)"
         id="g73">
        <g
           id="g857"
           transform="matrix(0.39999998,0,0,0.39999998,203.48563,207.67472)"
           style="stroke-width:1.25;stroke-miterlimit:4;stroke-dasharray:none">
          <g
             id="g932"
             transform="matrix(2,0,0,2,-55.755472,-51.850788)">
            <path
               style="fill:none;stroke:#000000;stroke-width:6.51216;stroke-linecap:butt;stroke-linejoin:miter;stroke-miterlimit:4;stroke-dasharray:none;stroke-opacity:1"
               d="m 95.059817,98.526176 h 98.211423 c 3.63242,0 7.76952,0.877508 10.33805,3.446014 2.56848,2.56851 3.44596,6.70563 3.44596,10.33804 0,3.44602 -11.19952,62.02829 -11.19952,62.02829 0,0 -0.87749,7.76954 -3.44599,10.33804 -2.56851,2.5685 -6.70563,3.446 -10.33805,3.446 -34.46014,1e-5 -44.79819,1e-5 -79.25834,0 -3.632417,0 -7.769537,-0.8775 -10.338041,-3.446 -2.568512,-2.5685 -3.446016,-10.33804 -3.446016,-10.33804 0,0 -7.753536,-58.58227 -7.75354,-62.02829 0,-3.63241 0.877516,-7.76953 3.44602,-10.33804 2.568512,-2.568506 6.705628,-3.446014 10.338044,-3.446014 z"
               id="path835"
               sodipodi:nodetypes="sssscsssscsss" />
            <path
               style="fill:none;stroke:#000000;stroke-width:6.51216;stroke-linecap:round;stroke-linejoin:miter;stroke-miterlimit:4;stroke-dasharray:none;stroke-opacity:1"
               d="m 88.167785,98.526176 c 0,0 -0.430752,-7.753532 -4e-6,-10.338044 0.430756,-2.584516 6.70682,-3.53904 10.338048,-3.446016 7.040761,0.18032 14.701621,-0.09916 20.676091,0 3.63192,0.06028 8.86102,-0.24656 10.33805,3.446016 1.3784,3.446016 1.6298,5.07582 3.44601,6.892028 1.81621,1.816212 6.89203,3.446016 6.89203,3.446016"
               id="path837"
               sodipodi:nodetypes="czssssc" />
            <g
               transform="matrix(0.6031084,0,0,0.6031084,99.154533,98.377716)"
               id="g895">
              <path
                 class="cls-1"
                 d="m 85.91,28.48 a 4.88,4.88 0 1 0 4.88,4.88 4.89,4.89 0 0 0 -4.88,-4.88 z"
                 id="path865" />
              <path
                 d="M 85.91,19.47 A 13.89,13.89 0 1 0 99.8,33.36 13.9,13.9 0 0 0 85.91,19.47 Z m 0,18.77 a 4.88,4.88 0 1 1 4.88,-4.88 4.89,4.89 0 0 1 -4.88,4.88 z"
                 id="path867" />
              <path
                 class="cls-2"
                 d="m 97.55,110.81 a 4.88,4.88 0 1 0 4.87,4.88 4.89,4.89 0 0 0 -4.87,-4.88 z"
                 id="path869" />
              <path
                 d="m 97.55,101.8 a 13.89,13.89 0 1 0 13.89,13.89 13.9,13.9 0 0 0 -13.89,-13.89 z m 0,18.77 a 4.88,4.88 0 1 1 4.87,-4.88 4.89,4.89 0 0 1 -4.87,4.88 z"
                 id="path871" />
              <path
                 class="cls-3"
                 d="m 59.86,50.52 a 4.85,4.85 0 0 0 -4.57,-3.27 5,5 0 0 0 -1.56,0.26 C 44.19,50.76 31.24,59.64 26.17,74 v 0 c -2.84,8 -3,17 -0.31,26.69 a 4.82,4.82 0 0 0 8.85,1.12 4.78,4.78 0 0 0 0.47,-3.66 C 28.54,73.75 45.67,60.6 56.83,56.66 a 4.86,4.86 0 0 0 3.03,-6.14 z"
                 id="path873" />
              <path
                 d="M 68.4,47.63 A 13.85,13.85 0 0 0 50.83,39 C 39.37,42.89 23.83,53.61 17.67,71 14.2,80.74 14,91.53 17.16,103 A 13.85,13.85 0 0 0 43.88,95.72 C 38,74.07 56.13,66.47 59.81,65.17 A 13.9,13.9 0 0 0 68.4,47.63 Z m -11.57,9 C 45.67,60.6 28.54,73.75 35.18,98.11 A 4.85,4.85 0 0 1 31.79,104 4.85,4.85 0 0 1 25.86,100.61 C 23.22,91 23.33,82 26.17,74 v 0 c 5.07,-14.32 18,-23.2 27.56,-26.45 a 5,5 0 0 1 1.56,-0.26 4.83,4.83 0 0 1 1.54,9.41 z"
                 id="path875" />
              <path
                 class="cls-4"
                 d="m 123.62,73.8 a 48,48 0 0 0 -23.08,-6 40.13,40.13 0 0 0 -15,2.81 c -7.9,3.18 -14.71,9 -20.23,17.42 a 4.83,4.83 0 0 0 5,7.38 4.75,4.75 0 0 0 3,-2.07 C 87.2,72.26 108.4,76.41 118.73,82.19 a 4.8311619,4.8311619 0 1 0 4.81,-8.38 z"
                 id="path877" />
              <path
                 d="M 128.11,66 C 117.61,60 99.29,55.39 82.2,62.26 72.56,66.13 64.35,73.13 57.8,83.08 a 13.86,13.86 0 0 0 11.54,21.47 14.28,14.28 0 0 0 2.82,-0.29 13.76,13.76 0 0 0 8.77,-5.95 C 93.28,79.54 111,88.13 114.39,90 a 13.85,13.85 0 0 0 13.72,-24 z m -2.69,14.4 a 4.88,4.88 0 0 1 -6.61,1.8 C 108.48,76.42 87.28,72.27 73.39,93.35 A 4.82,4.82 0 0 1 66.71,94.72 4.83,4.83 0 0 1 65.33,88 C 70.85,79.62 77.66,73.76 85.56,70.58 a 40.13,40.13 0 0 1 15,-2.81 48,48 0 0 1 23.08,6 4.83,4.83 0 0 1 1.78,6.61 z"
                 id="path879" />
            </g>
          </g>
        </g>
        <text
           xml:space="preserve"
           id="text51"
           style="font-style:normal;font-variant:normal;font-weight:normal;font-stretch:normal;font-size:16.9333px;line-height:1.25;font-family:'Varela Round';-inkscape-font-specification:'Varela Round';letter-spacing:0px;word-spacing:0px;white-space:pre;shape-inside:url(#rect53)"
           transform="translate(0,6.0927963)"><tspan
             x="369.31445"
             y="274.86549"
             id="tspan760"><tspan
               style="shape-inside:url(#rect53)"
               id="tspan758">Ancient
</tspan></tspan><tspan
             x="369.31445"
             y="296.03212"
             id="tspan764"><tspan
               style="shape-inside:url(#rect53)"
               id="tspan762">Metagenome
</tspan></tspan><tspan
             x="369.31445"
             y="317.19874"
             id="tspan768"><tspan
               style="shape-inside:url(#rect53)"
               id="tspan766">Dir</tspan></tspan></text>
      </g>
    </g>
  </g>
</svg>
